<?xml version="1.0" encoding="UTF-8" standalone="no"?>
<svg
   version="1.1"
   id="Layer_1"
   x="0px"
   y="0px"
   width="100%"
   viewBox="0 0 446 841"
   enable-background="new 0 0 446 841"
   xml:space="preserve"
   sodipodi:docname="logo-image.svg"
   inkscape:version="1.4 (e7c3feb1, 2024-10-09)"
   xmlns:inkscape="http://www.inkscape.org/namespaces/inkscape"
   xmlns:sodipodi="http://sodipodi.sourceforge.net/DTD/sodipodi-0.dtd"
   xmlns="http://www.w3.org/2000/svg"
   xmlns:svg="http://www.w3.org/2000/svg"><defs
   id="defs32" /><sodipodi:namedview
   id="namedview32"
   pagecolor="#ffffff"
   bordercolor="#000000"
   borderopacity="0.25"
   inkscape:showpageshadow="2"
   inkscape:pageopacity="0.0"
   inkscape:pagecheckerboard="0"
   inkscape:deskcolor="#d1d1d1"
   inkscape:zoom="1.5282076"
   inkscape:cx="106.98808"
   inkscape:cy="275.48613"
   inkscape:window-width="1512"
   inkscape:window-height="845"
   inkscape:window-x="0"
   inkscape:window-y="38"
   inkscape:window-maximized="0"
   inkscape:current-layer="Layer_1" />
<path
   fill="#FEFEFE"
   opacity="1.000000"
   stroke="none"
   d=" M1.000000,263.000000   C1.000000,175.333344 1.000000,88.166687 1.000000,1.000023   C149.666641,1.000016 298.333282,1.000016 446.999939,1.000008   C446.999939,281.333282 446.999939,561.666565 446.999969,841.999878   C298.333405,841.999878 149.666824,841.999878 1.000119,841.999939   C1.000000,649.166687 1.000000,456.333344 1.000000,263.000000  M60.438534,452.073792   C60.863628,452.789673 61.290203,453.504669 61.713570,454.221588   C87.935776,498.624786 123.285988,532.526733 172.452652,550.568481   C182.430206,554.229675 188.218567,561.884094 191.841385,571.473938   C195.840439,582.059814 195.823456,593.107605 194.690216,604.057617   C191.501495,634.869324 187.785858,665.626160 184.502350,696.428467   C181.677795,722.925354 178.600922,749.413818 176.644806,775.980347   C173.885773,813.451355 207.568008,839.919678 242.403519,828.312195   C263.721100,821.208984 277.676300,799.701233 275.269012,775.125183   C270.430756,725.731018 264.666199,676.428284 259.594147,627.055908   C258.151031,613.008301 256.545868,598.790833 257.227539,584.758789   C258.070404,567.407959 266.495728,554.826782 284.057922,548.238770   C297.175629,543.318054 309.915527,536.584656 321.613403,528.832336   C360.141632,503.298981 386.826660,467.536621 404.582458,425.497620   C440.673035,340.048859 442.534149,253.004379 412.283447,165.586548   C396.453400,119.841248 370.355682,80.545525 331.718842,50.528358   C272.827026,4.775026 196.937546,0.721859 135.593002,39.669617   C94.524345,65.744171 66.505554,102.697899 47.088470,146.589859   C24.477255,197.702133 16.426342,251.401428 19.665646,307.009918   C22.642183,358.107513 34.954033,406.554779 60.438534,452.073792  z"
   id="path1" />
<path
   fill="#243F5B"
   opacity="1.000000"
   stroke="none"
   d=" M60.255905,451.756073   C34.954033,406.554779 22.642183,358.107513 19.665646,307.009918   C16.426342,251.401428 24.477255,197.702133 47.088470,146.589859   C66.505554,102.697899 94.524345,65.744171 135.593002,39.669617   C196.937546,0.721859 272.827026,4.775026 331.718842,50.528358   C370.355682,80.545525 396.453400,119.841248 412.283447,165.586548   C442.534149,253.004379 440.673035,340.048859 404.582458,425.497620   C386.826660,467.536621 360.141632,503.298981 321.613403,528.832336   C309.915527,536.584656 297.175629,543.318054 284.057922,548.238770   C266.495728,554.826782 258.070404,567.407959 257.227539,584.758789   C256.545868,598.790833 258.151031,613.008301 259.594147,627.055908   C264.666199,676.428284 270.430756,725.731018 275.269012,775.125183   C277.676300,799.701233 263.721100,821.208984 242.403519,828.312195   C207.568008,839.919678 173.885773,813.451355 176.644806,775.980347   C178.600922,749.413818 181.677795,722.925354 184.502350,696.428467   C187.785858,665.626160 191.501495,634.869324 194.690216,604.057617   C195.823456,593.107605 195.840439,582.059814 191.841385,571.473938   C188.218567,561.884094 182.430206,554.229675 172.452652,550.568481   C123.285988,532.526733 87.935776,498.624786 61.713570,454.221588   C61.290203,453.504669 60.863628,452.789673 60.255905,451.756073  M286.294220,63.185211   C238.587891,40.134426 192.634491,44.191833 148.845276,73.050598   C120.918900,91.455147 100.573074,117.041924 85.926895,146.728836   C47.030327,225.569824 44.023346,307.079498 70.801193,389.982208   C83.191032,428.340485 103.871155,461.922119 134.710358,488.544769   C159.281311,509.756134 187.531708,522.569580 220.279999,523.931580   C259.012970,525.542480 291.843781,511.155640 320.184692,485.603638   C352.418030,456.542236 372.445007,419.911133 384.882874,378.876373   C398.269684,334.710785 401.324646,289.565369 395.576813,243.888885   C390.447266,203.125488 378.568054,164.518875 356.307770,129.602005   C338.645752,101.897820 316.572021,78.732651 286.294220,63.185211  z"
   id="path2" />
<path
   fill="#FEFEFE"
   opacity="1.000000"
   stroke="none"
   d=" M286.617828,63.368561   C316.572021,78.732651 338.645752,101.897820 356.307770,129.602005   C378.568054,164.518875 390.447266,203.125488 395.576813,243.888885   C401.324646,289.565369 398.269684,334.710785 384.882874,378.876373   C372.445007,419.911133 352.418030,456.542236 320.184692,485.603638   C291.843781,511.155640 259.012970,525.542480 220.279999,523.931580   C187.531708,522.569580 159.281311,509.756134 134.710358,488.544769   C103.871155,461.922119 83.191032,428.340485 70.801193,389.982208   C44.023346,307.079498 47.030327,225.569824 85.926895,146.728836   C100.573074,117.041924 120.918900,91.455147 148.845276,73.050598   C192.634491,44.191833 238.587891,40.134426 286.617828,63.368561  M225.098404,104.289764   C210.103012,104.298927 195.107620,104.308098 179.736893,103.605530   C178.981110,101.110939 178.225327,98.616356 177.507416,96.246796   C169.606293,96.246796 162.025543,96.246796 154.066895,96.246796   C153.701797,110.032181 156.031693,122.992378 161.146149,135.414276   C169.266846,155.137634 183.158401,170.467545 198.557144,184.889252   C193.612183,189.570755 188.500183,194.089355 183.749481,198.960327   C153.847168,229.619690 141.127762,265.665039 150.053299,308.273529   C152.511703,320.009369 156.763626,331.103394 163.952332,341.687561   C173.232315,356.743317 185.543945,369.048950 198.789169,380.922333   C185.943558,393.491089 173.532074,406.401520 165.018799,422.501160   C156.077911,439.409393 153.180939,457.445740 154.319427,476.526855   C162.434433,476.526855 170.134369,476.526855 177.570129,476.526855   C178.407288,472.445557 179.165710,468.748047 180.875885,465.123108   C195.926361,465.087250 210.976822,465.051422 226.953690,465.147186   C242.202927,465.147186 257.452148,465.147186 272.930084,465.147186   C273.429565,469.279297 273.861481,472.852509 274.314819,476.603027   C282.008667,476.603027 289.576355,476.603027 297.497528,476.603027   C299.238953,457.703400 296.188171,439.999664 287.528992,423.334595   C279.024811,406.967834 266.446564,393.973694 253.209747,381.185120   C261.852417,372.197021 270.921204,363.576050 279.048248,354.143646   C295.473267,335.080444 303.959625,312.912445 304.402496,287.502441   C304.663666,272.516571 301.943054,258.205933 297.719666,243.299210   C288.734558,219.665497 272.542328,201.534454 253.830124,184.885635   C256.971466,181.685043 260.139862,178.510483 263.249298,175.279190   C274.634979,163.447311 284.738861,150.724915 290.900604,135.278885   C295.887054,122.779037 298.073914,109.820671 297.719116,96.244537   C289.574524,96.244537 281.862610,96.244537 274.287628,96.244537   C273.472656,99.150566 272.757782,101.699539 271.101746,104.211617   C256.070465,104.322083 241.039154,104.432549 225.098404,104.289764  z"
   id="path3" />
<path
   fill="#88c547"
   opacity="1"
   stroke="none"
   d="m 179.92413,465.05057 c -0.75842,3.69748 -1.51684,7.39499 -2.354,11.47628 h -23.2507 c -1.13849,-19.08111 1.75848,-37.11746 10.69937,-54.02569 8.51327,-16.09964 20.92476,-29.01007 34.19946,-42.00989 8.99246,-8.05856 17.55586,-15.68606 26.43213,-23.39416 5.38058,-4.69748 10.44829,-9.31443 15.83051,-14.04831 4.18159,-3.96921 8.04869,-7.82154 12.20283,-11.83768 4.93245,-5.73868 9.57787,-11.31351 14.51369,-17.09644 2.47168,-3.49707 4.65292,-6.78604 7.04761,-10.21099 0.40768,-0.5904 0.60192,-1.04483 1.05801,-1.75345 2.69217,-5.61795 5.12247,-10.98172 7.96222,-17.24909 -3.37198,0 -5.3392,0.0105 -7.30628,-0.002 -16.95083,-0.10453 -33.9017,-0.21311 -50.86012,-0.75098 0.0145,-4.02774 -0.92857,-7.62491 -0.45252,-11.29663 18.19768,-0.0746 36.90649,-0.0746 55.94427,-0.0746 -3.65699,-6.52441 -6.85581,-12.23135 -10.03281,-18.14622 0.0218,-0.2079 -0.0408,-0.62125 0.40314,-0.62413 3.66113,-0.37271 6.23736,0.16132 7.62039,3.71161 0.38843,0.99713 2.2756,1.57953 3.58829,1.93512 0.35235,0.0955 1.77426,-1.62696 1.59747,-2.03467 -2.0314,-4.68581 2.51819,-7.43243 3.26392,-11.3091 0.50436,-2.62192 2.82016,-3.95434 5.8608,-2.89679 1.21973,0.42426 3.15903,2.447 4.46231,2.63103 4.15512,14.20115 6.30955,26.47235 6.04838,41.45822 -0.44287,25.41 -8.92923,47.578 -25.35425,66.64121 -8.12705,9.4324 -17.19583,18.05337 -26.28687,27.49057 -9.12561,7.96267 -17.80287,15.47619 -26.75848,23.11078 -7.19451,6.67782 -14.11063,13.23461 -21.28394,19.93933 -3.6968,4.06036 -7.13641,7.97284 -10.82681,12.14465 -3.48286,5.57098 -6.71495,10.88263 -10.21301,16.42462 -1.42902,4.08588 -2.59201,7.94144 -3.75501,11.79697 z"
   id="path4"
   sodipodi:nodetypes="cccsccccccccccccccsscsscssccccccc" />
<path
   fill="#ea3f40"
   opacity="1"
   stroke="none"
   d="m 272.04297,104.24852 c 0.71481,-2.54898 1.42969,-5.097954 2.24466,-8.003983 h 23.43149 c 0.35479,13.576133 -1.83207,26.534503 -6.81852,39.034343 -6.16174,15.44603 -16.26562,28.16843 -27.6513,40.00031 -3.10944,3.23129 -6.27783,6.40585 -9.85337,10.03899 -9.13301,7.92335 -17.83184,15.41417 -26.81686,23.03912 -12.96905,10.56622 -25.78868,20.85594 -36.66569,34.82483 12.70011,0 25.41516,-0.10724 37.16072,0.33952 -0.021,4.01324 0.82015,7.68695 0.33579,11.32091 -14.05912,0.0605 -29.47416,0.001 -43.06465,0.1151 -1.62265,0.0136 -4.10099,0.4835 -4.70953,1.56828 -2.9727,5.29929 -5.44556,10.87897 -8.33444,16.5834 -1.57515,3.77573 -2.37483,7.43476 -3.90034,11.3115 -2.04609,10.89599 -5.30837,21.30227 -6.01256,31.94952 -0.53696,8.11862 1.48964,16.4068 2.37579,24.61957 -7.00053,-9.88654 -11.25246,-20.98056 -13.71086,-32.7164 -8.92554,-42.60849 3.79387,-78.65384 33.69618,-109.3132 4.7507,-4.87098 9.8627,-9.38958 15.29091,-14.50333 9.26427,-8.00507 18.0453,-15.57787 27.15788,-23.28934 5.86217,-5.37115 11.39275,-10.60365 17.22367,-16.00253 4.02294,-4.06918 7.44702,-7.82274 11.48182,-11.8925 4.00818,-5.47694 8.0028,-10.9362 11.93007,-16.53037 1.89053,-4.35405 3.54984,-8.42389 5.20914,-12.49374 z"
   id="path5"
   sodipodi:nodetypes="cccsscccccscccscsscccccc" />
<path
   fill="#31adde"
   opacity="1"
   stroke="none"
   d="m 220.69128,377.47267 c 8.67726,-7.51352 6.78439,-6.56302 15.76703,-14.2305 13.82815,12.04428 42.5665,43.72566 51.07068,60.09242 8.65918,16.66507 11.70996,34.36881 9.96854,53.26844 h -23.18271 c -0.45334,-3.75052 -0.88525,-7.32373 -1.38474,-11.45584 -15.47793,0 -30.72715,0 -46.43676,-0.52225 -0.4346,-4.1044 -0.4088,-7.68652 0.0712,-11.35541 14.20725,-0.0868 27.96027,-0.0868 42.97742,-0.0868 -3.26416,-5.02661 -5.93381,-8.96765 -8.4176,-13.02255 -1.64865,-2.6915 -3.74561,-3.65573 -6.98042,-3.60791 -9.30364,0.13757 -18.61347,-0.14277 -27.90932,-0.6586 -0.0316,-3.84662 -0.0748,-7.29358 0.34112,-10.78693 6.97623,-0.0464 13.49337,-0.0464 20.01052,-0.0464 0.21213,-0.41839 0.42424,-0.83682 0.63637,-1.25522 -6.98047,-6.39373 -30.73051,-30.5555 -37.71096,-36.94924 z"
   id="path6"
   sodipodi:nodetypes="ccsccccccsscccccc" />
<path
   fill="#2dacdf"
   opacity="1"
   stroke="none"
   d="m 244.38339,172.77552 c -8.781,7.5728 -17.0815,16.4789 -26.18183,24.21709 -16.04593,-13.72258 -48.93471,-41.85498 -57.05541,-61.57833 -5.11446,-12.4219 -7.44435,-25.3821 -7.07926,-39.167484 h 23.44053 c 0.71791,2.36956 1.47369,4.864144 2.43452,8.057234 2.18416,4.682 4.16325,8.6655 6.20552,12.98789 3.86816,5.57798 7.67319,10.81706 11.64276,16.34303 3.97008,4.2847 7.77561,8.28248 11.7686,12.59378 5.56095,5.23486 29.45111,21.62541 34.82457,26.54679 z"
   id="path7"
   sodipodi:nodetypes="ccsccccccc" />
<path
   fill="#fbcd34"
   opacity="1"
   stroke="none"
   d="m 163.85825,341.33875 c -0.98024,-8.56159 -3.00684,-16.84977 -2.46988,-24.96839 0.70419,-10.64725 3.74181,-22.25901 6.08557,-33.12733 0.94678,0.0387 1.09469,1.47297 1.6694,2.15638 2.46117,5.87821 4.80708,11.40897 7.23682,17.24347 2.76342,4.29804 5.44307,8.29236 8.26196,12.62354 4.62755,5.51031 9.11585,10.68377 13.72003,16.14313 4.22727,4.08355 8.33866,7.88119 12.59491,11.98571 4.89005,4.79874 22.51311,16.84943 27.25832,21.34125 -8.56339,7.62754 -16.02975,17.67828 -24.91843,25.43539 -13.7781,-11.14087 -40.06464,-33.42858 -49.4387,-48.83315 z"
   id="path8"
   sodipodi:nodetypes="csccccccccc" />
<path
   fill="#85c54c"
   opacity="1"
   stroke="none"
   d="m 216.38436,195.87795 c 10.25287,-8.82903 14.65974,-16.61239 25.28583,-25.58511 22.7054,18.74716 46.07228,47.50357 56.70277,75.77521 -1.49586,0.19891 -2.41203,4.02433 -3.84966,3.52428 -3.58385,-1.24648 -3.16506,3.11007 -3.83318,6.1853 -1.16937,5.38241 -6.927,2.84723 -4.53269,8.37016 0.20837,0.48054 -4.37362,1.57537 -4.78891,1.46285 -1.5472,-0.41911 -5.52643,-4.35952 -5.98425,-5.53479 -1.63011,-4.18454 -3.21042,-6.6868 -7.73359,-6.53562 0.14612,-5.66701 -4.7104,-11.58936 -8.09407,-16.12475 -11.77336,-15.4645 -27.90371,-29.0181 -43.17225,-41.53753 z"
   id="path9"
   sodipodi:nodetypes="cccsssssccc"
   style="stroke-width:1.17865" />
<path
   fill="#3cb2e1"
   opacity="1"
   stroke="none"
   d="m 272.15474,104.23007 c -1.18869,4.0883 -2.94505,8.15814 -5.2744,12.46737 -13.85788,0.15058 -27.53099,0.0618 -40.74243,-0.46601 -0.0591,-4.1888 -0.0946,-7.93861 -0.13005,-11.68842 15.03129,-0.11046 30.64499,-0.22093 46.14688,-0.31294 z"
   id="path10"
   sodipodi:nodetypes="ccccc" />
<path
   fill="#fcd13b"
   opacity="1"
   stroke="none"
   d="m 226.37419,104.56567 c 0.4902,3.87643 0.45102,7.47696 0.0357,11.75556 -13.49358,0.56312 -27.43207,0.6721 -40.47488,0.70643 -1.97911,-3.98349 -3.80892,-8.04163 -5.80541,-12.36776 14.97801,-0.3518 30.79446,-0.21169 46.24458,-0.0942 z"
   id="path11"
   sodipodi:nodetypes="cccccc" />
<path
   fill="#fbcf34"
   opacity="1"
   stroke="none"
   d="m 226.5888,453.35632 c -0.0258,3.5821 0.0168,7.16422 -0.0118,11.20282 -15.0533,0.49228 -31.06074,0.52811 -46.58711,0.52771 0.68713,-3.89181 1.85013,-7.74737 3.7494,-11.7814 14.47782,-0.10205 29.10799,-0.0256 42.84954,0.0509 z"
   id="path12"
   sodipodi:nodetypes="ccccc" />
<path
   fill="#FEFFFE"
   opacity="1.000000"
   stroke="none"
   d=" M176.296341,302.339172   C173.950424,296.808380 171.604507,291.277618 169.604050,285.317810   C188.668488,284.785553 207.387451,284.682312 226.106430,284.579102   C243.057281,284.686432 260.008148,284.795013 276.958984,284.899536   C278.926056,284.911682 280.893280,284.901154 284.265259,284.901154   C281.425507,291.168518 278.995209,296.532288 276.013458,302.144226   C275.287323,302.474976 275.112640,302.557495 274.532715,302.511841   C267.058929,302.481964 259.990417,302.580231 252.530014,302.579773   C243.462524,302.436035 234.786911,302.391022 225.641953,302.268738   C208.880524,302.240723 192.588425,302.289948 176.296341,302.339172  z"
   id="path13" />
<path
   fill="#fcfdf9"
   opacity="1"
   stroke="none"
   d="m 171.54053,272.88541 c 2.64962,-5.4805 5.12248,-11.06018 8.09518,-16.35947 0.60854,-1.08478 3.08688,-1.5547 4.70953,-1.56828 13.59049,-0.11371 27.18242,-0.0546 41.69619,-0.0171 15.77969,-0.0135 30.63713,-0.0575 45.49458,-0.10147 3.19879,5.70697 6.39761,11.41391 10.0546,17.93832 -37.3736,-5.64739 -73.05793,-0.62393 -110.05008,0.10802 z"
   id="path14"
   sodipodi:nodetypes="cssccccc" />
<path
   fill="#FCFDFD"
   opacity="1.000000"
   stroke="none"
   d=" M226.564545,453.269531   C212.368759,453.279846 198.627213,453.203400 184.415405,453.075134   C187.177200,447.711609 190.409286,442.399963 194.348816,436.852966   C205.445206,436.509521 215.834137,436.401428 226.223083,436.293365   C235.530472,436.409515 244.840302,436.689850 254.143936,436.552277   C257.378754,436.504456 259.475708,437.468689 261.124359,440.160187   C263.608154,444.215088 266.277802,448.156128 269.541962,453.182739   C254.524811,453.182739 240.771790,453.182739 226.564545,453.269531  z"
   id="path15" />
<path
   fill="#FBFDFA"
   opacity="1.000000"
   stroke="none"
   d=" M198.246262,331.123657   C193.757965,325.950195 189.269669,320.776733 185.145554,315.154724   C187.492706,314.671814 189.475555,314.627625 191.458649,314.604706   C203.018967,314.471069 214.579330,314.342407 226.532684,314.341766   C237.949295,314.322388 248.972870,314.173279 260.431641,314.090454   C263.213562,314.212067 265.560303,314.267426 267.907013,314.322784   C263.261597,319.897614 258.616180,325.472443 253.184265,331.118286   C243.626038,331.178223 234.854324,331.167114 225.610519,331.089478   C216.174377,331.056488 207.210312,331.090088 198.246262,331.123657  z"
   id="path16" />
<path
   fill="#FDCC2E"
   opacity="1"
   stroke="none"
   d="m 171.30127,273.10934 c 18.12782,-0.27838 36.44534,-0.33285 54.80955,-0.28506 0.13184,3.91385 0.003,7.29654 -0.012,11.32428 -18.71141,0.53375 -37.67539,0.85147 -56.85508,1.03632 -0.92017,-0.2544 -1.32873,-1.38727 -2.08589,-1.75097 1.03821,-3.57944 2.56823,-6.54884 4.14338,-10.32457 z"
   id="path17"
   style="fill:#ea3f40;fill-opacity:1"
   sodipodi:nodetypes="ccccccc" />
<path
   fill="#32ACDF"
   opacity="1"
   stroke="none"
   d="m 271.5578,254.63115 c -14.87924,0.25188 -29.73668,0.29587 -45.04875,0.2419 -0.4379,-3.66445 -0.74288,-7.33816 -0.26737,-11.42735 12.40744,-0.5686 25.85749,-0.40001 37.80617,-0.44591 2.76528,3.54281 4.35092,6.97839 7.29266,10.76567 0.17646,0.24444 0.23911,0.65779 0.21729,0.86569 z"
   id="path18"
   style="fill:#85c54c;fill-opacity:1"
   sodipodi:nodetypes="cccccc" />
<path
   fill="#fbfcfb"
   opacity="1"
   stroke="none"
   d="m 226.00288,404.745 c 7.25882,6.27267 13.24364,12.53183 20.22411,18.92557 -0.21213,0.41839 0.5714,0.97137 0.35927,1.38976 -6.51715,0 -13.03429,0 -20.48068,-0.0454 -7.66265,-0.18975 -14.39603,-0.33416 -21.12945,-0.47857 6.91614,-6.5568 13.83226,-13.11359 21.02675,-19.79141 z"
   id="path19"
   sodipodi:nodetypes="cccccc" />
<path
   fill="#EA4945"
   opacity="1"
   stroke="none"
   d="m 204.71896,424.68433 c 6.99059,-0.004 14.88602,0.0725 22.08961,0.30872 0.51332,3.53869 -0.19545,6.98565 -0.16382,10.83227 -10.40048,0.50775 -21.8831,0.6842 -32.72871,0.76831 2.98295,-3.93646 7.10612,-7.84894 10.80292,-11.9093 z"
   id="path20"
   style="fill:#fbcd34;fill-opacity:1"
   sodipodi:nodetypes="ccccc" />
<path
   fill="#34B1E4"
   opacity="1"
   stroke="none"
   d="m 226.08261,331.15601 c 8.77171,0.0111 17.95453,0.29628 27.22571,0.40019 -3.36763,3.94513 -7.23473,7.66042 -11.89157,11.55422 -5.48427,-0.0222 -10.65841,0.18813 -15.35951,-0.32163 -0.0188,-4.03794 0.0375,-8.0409 0.0253,-11.63278 z"
   id="path21"
   style="fill:#ea3f40;fill-opacity:1"
   sodipodi:nodetypes="cccccc" />
<path
   fill="#fafdf9"
   opacity="1"
   stroke="none"
   d="m 226.13235,342.82373 c 4.69451,0.0637 9.38903,0.12747 14.55878,0.2666 -4.59245,4.69235 -24.84402,5.10367 -29.25085,0.26325 5.12294,-0.40903 9.90751,-0.46946 14.69207,-0.52985 z"
   id="path22"
   sodipodi:nodetypes="cccc" />
<path
   fill="#FCCC28"
   opacity="1.000000"
   stroke="none"
   d=" M268.197418,314.114685   C265.560303,314.267426 263.213562,314.212067 260.426575,313.719238   C259.078827,312.047333 258.115723,310.849487 257.276215,309.570526   C255.785248,307.299133 254.369263,304.978516 252.921906,302.678528   C259.990417,302.580231 267.058929,302.481964 274.546692,302.744019   C274.994720,303.415680 275.016602,303.727448 275.031616,304.039703   C272.850342,307.328644 270.669098,310.617615 268.197418,314.114685  z"
   id="path23"
   style="fill:#fcd13c;fill-opacity:1" />
<path
   fill="#fcd13c"
   opacity="1"
   stroke="none"
   d="m 271.87769,308.70405 c -0.22843,-0.17624 0.83573,-5.33687 0.79297,-5.88036 0.16068,-0.3147 2.91484,0.1469 3.22924,-0.22688 -0.30135,1.55148 -3.61455,5.51684 -4.02221,6.10724 z"
   id="path24"
   sodipodi:nodetypes="cccc" />
<path
   fill="#FCFCFB"
   opacity="1.000000"
   stroke="none"
   d=" M262.762665,242.587402   C250.919525,242.938446 238.970840,242.984344 226.567703,243.106186   C214.363373,243.182129 202.613495,243.182129 189.913376,243.182129   C200.790390,229.213242 213.610016,218.923523 226.579071,208.357300   C238.795883,219.576202 250.726501,230.929230 262.762665,242.587402  z"
   id="path25" />
<path
   fill="#FDFEFD"
   opacity="1.000000"
   stroke="none"
   d=" M186.147461,117.291924   C199.127106,116.918686 212.169907,116.884354 225.687134,116.760223   C239.349350,116.759224 252.537140,116.848022 266.163757,116.981636   C262.906555,122.336433 259.210510,127.646408 254.747650,133.056396   C244.702927,133.252411 235.425049,133.348389 225.678101,133.334320   C216.014557,133.265518 206.820099,133.306778 197.625656,133.348053   C193.820648,128.108978 190.015625,122.869904 186.147461,117.291924  z"
   id="path26" />
<path
   fill="#f7fbf8"
   opacity="1"
   stroke="none"
   d="m 210.00217,146.08607 c 5.55438,-0.68464 10.8529,-0.91314 16.60591,-1.0771 5.80749,0.15053 11.16052,0.23653 16.51353,0.32254 -5.53059,5.2325 -28.00184,6.13208 -33.11944,0.75456 z"
   id="path27"
   sodipodi:nodetypes="cccc" />
<path
   fill="#38B0E0"
   opacity="1"
   stroke="none"
   d="m 243.42194,145.16513 c -5.65334,0.0804 -11.82742,0.069 -17.6302,-0.53395 -0.45507,-4.0487 0.36071,-7.65508 0.35545,-11.1868 9.27786,-0.096 18.92894,0.0319 28.6615,0.003 -3.26796,3.96975 -7.36381,7.64867 -11.38675,11.71785 z"
   id="path28"
   style="fill:#fcd13b;fill-opacity:1"
   sodipodi:nodetypes="ccccc" />
<path
   fill="#FCCE34"
   opacity="1"
   stroke="none"
   d="m 226.20059,133.33432 c 0.47435,3.64178 0.33035,7.47209 0.33091,11.45625 -5.30322,0.68093 -12.39314,0.61086 -18.13501,0.98201 -4.24885,-3.85515 -6.63619,-7.85293 -10.60627,-12.13763 9.02988,-0.32817 18.74683,-0.36943 28.41037,-0.30063 z"
   id="path29"
   style="fill:#38b0e0;fill-opacity:1"
   sodipodi:nodetypes="ccccc" />
<path
   fill="#35b0e1"
   opacity="1"
   stroke="none"
   d="m 226.27731,314.21207 c -11.56035,0.13034 -23.25834,0.259 -34.81866,0.39264 -1.98309,0.0229 -3.96594,0.0671 -6.45235,0.21316 -3.18307,-3.88263 -5.86272,-7.87695 -8.62614,-12.17496 16.20826,-0.35296 33.32615,-0.53982 50.09668,-0.0814 0.48185,4.17608 -0.20292,7.98214 -0.19953,11.65054 z"
   id="path30"
   sodipodi:nodetypes="cscccc" />
<path
   fill="#8CC750"
   opacity="1"
   stroke="none"
   d="m 226.19428,342.65175 c -4.70946,0.23237 -10.24771,0.36132 -15.51551,0.46346 -4.115,-3.9615 -8.08935,-7.62211 -12.31662,-11.70566 8.84816,-0.31946 18.36036,-0.28455 27.7965,-0.25156 0.005,3.65842 0.0169,7.45583 0.0356,11.49376 z"
   id="path31"
   style="fill:#85c54c;fill-opacity:1"
   sodipodi:nodetypes="ccccc" />
<path
   fill="#fcd13c"
   opacity="1"
   stroke="none"
   d="m 226.09516,314.34177 c -0.0354,-3.7981 0.11926,-7.57591 0.0799,-11.67472 8.61181,-0.003 19.7671,0.0869 28.8346,0.0119 1.83924,2.39874 0.77555,4.62017 2.26651,6.89157 0.83951,1.27896 4.08392,2.87355 4.99645,4.47917 -11.01849,0.52033 -25.42441,0.27269 -36.84102,0.29207 z"
   id="path32"
   sodipodi:nodetypes="cccsccc" />
</svg>
