<?xml version="1.0" encoding="UTF-8" standalone="no"?>
<svg
   version="1.1"
   id="Layer_1"
   x="0px"
   y="0px"
   width="1561.1864"
   viewBox="0 0 1561.1865 653.77234"
   enable-background="new 0 0 446 841"
   xml:space="preserve"
   sodipodi:docname="logo-image.svg"
   inkscape:version="1.4 (e7c3feb1, 2024-10-09)"
   height="653.77234"
   inkscape:export-filename="logo-image.png"
   inkscape:export-xdpi="96"
   inkscape:export-ydpi="96"
   xmlns:inkscape="http://www.inkscape.org/namespaces/inkscape"
   xmlns:sodipodi="http://sodipodi.sourceforge.net/DTD/sodipodi-0.dtd"
   xmlns="http://www.w3.org/2000/svg"
   xmlns:svg="http://www.w3.org/2000/svg"><defs
   id="defs32"><clipPath
     clipPathUnits="userSpaceOnUse"
     id="clipPath3"><path
       d="M 0,1.2207e-4 H 959.76 V 540.00012 H 0 Z"
       clip-rule="evenodd"
       id="path3" /></clipPath><clipPath
     clipPathUnits="userSpaceOnUse"
     id="clipPath4"><path
       d="m 0.39675,0.3653 h 334.5 v 630.75 h -334.5 z"
       clip-rule="evenodd"
       id="path4-4" /></clipPath><clipPath
     clipPathUnits="userSpaceOnUse"
     id="clipPath5"><path
       d="m 0.39675,0.3653 h 334.5 v 630.75 h -334.5 z"
       clip-rule="evenodd"
       id="path5-0" /></clipPath><clipPath
     clipPathUnits="userSpaceOnUse"
     id="clipPath6"><path
       d="m 0.39675,0.3653 h 334.5 v 630.75 h -334.5 z"
       clip-rule="evenodd"
       id="path6-4" /></clipPath><clipPath
     clipPathUnits="userSpaceOnUse"
     id="clipPath7"><path
       d="m 0.39675,0.3653 h 334.5 v 630.75 h -334.5 z"
       clip-rule="evenodd"
       id="path7-6" /></clipPath><clipPath
     clipPathUnits="userSpaceOnUse"
     id="clipPath8"><path
       d="m 0.39675,0.3653 h 334.5 v 630.75 h -334.5 z"
       clip-rule="evenodd"
       id="path8-4" /></clipPath><clipPath
     clipPathUnits="userSpaceOnUse"
     id="clipPath9"><path
       d="m 0.39675,0.3653 h 334.5 v 630.75 h -334.5 z"
       clip-rule="evenodd"
       id="path9-6" /></clipPath><clipPath
     clipPathUnits="userSpaceOnUse"
     id="clipPath10"><path
       d="m 0.39675,0.3653 h 334.5 v 630.75 h -334.5 z"
       clip-rule="evenodd"
       id="path10-4" /></clipPath><clipPath
     clipPathUnits="userSpaceOnUse"
     id="clipPath11"><path
       d="m 0.39675,0.3653 h 334.5 v 630.75 h -334.5 z"
       clip-rule="evenodd"
       id="path11-3" /></clipPath><clipPath
     clipPathUnits="userSpaceOnUse"
     id="clipPath12"><path
       d="m 0.39675,0.3653 h 334.5 v 630.75 h -334.5 z"
       clip-rule="evenodd"
       id="path12-8" /></clipPath><clipPath
     clipPathUnits="userSpaceOnUse"
     id="clipPath13"><path
       d="m 0.39675,0.3653 h 334.5 v 630.75 h -334.5 z"
       clip-rule="evenodd"
       id="path13" /></clipPath><clipPath
     clipPathUnits="userSpaceOnUse"
     id="clipPath14"><path
       d="m 0.39675,0.3653 h 334.5 v 630.75 h -334.5 z"
       clip-rule="evenodd"
       id="path14" /></clipPath><clipPath
     clipPathUnits="userSpaceOnUse"
     id="clipPath15"><path
       d="m 0.39675,0.3653 h 334.5 v 630.75 h -334.5 z"
       clip-rule="evenodd"
       id="path15" /></clipPath><clipPath
     clipPathUnits="userSpaceOnUse"
     id="clipPath16"><path
       d="m 0.39675,0.3653 h 334.5 v 630.75 h -334.5 z"
       clip-rule="evenodd"
       id="path16" /></clipPath><clipPath
     clipPathUnits="userSpaceOnUse"
     id="clipPath17"><path
       d="m 0.39675,0.3653 h 334.5 v 630.75 h -334.5 z"
       clip-rule="evenodd"
       id="path17-4" /></clipPath><clipPath
     clipPathUnits="userSpaceOnUse"
     id="clipPath18"><path
       d="m 0.39675,0.3653 h 334.5 v 630.75 h -334.5 z"
       clip-rule="evenodd"
       id="path18-0" /></clipPath><clipPath
     clipPathUnits="userSpaceOnUse"
     id="clipPath19"><path
       d="m 0.39675,0.3653 h 334.5 v 630.75 h -334.5 z"
       clip-rule="evenodd"
       id="path19" /></clipPath><clipPath
     clipPathUnits="userSpaceOnUse"
     id="clipPath20"><path
       d="m 0.39675,0.3653 h 334.5 v 630.75 h -334.5 z"
       clip-rule="evenodd"
       id="path20-0" /></clipPath><clipPath
     clipPathUnits="userSpaceOnUse"
     id="clipPath21"><path
       d="m 0.39675,0.3653 h 334.5 v 630.75 h -334.5 z"
       clip-rule="evenodd"
       id="path21-9" /></clipPath><clipPath
     clipPathUnits="userSpaceOnUse"
     id="clipPath22"><path
       d="m 0.39675,0.3653 h 334.5 v 630.75 h -334.5 z"
       clip-rule="evenodd"
       id="path22" /></clipPath><clipPath
     clipPathUnits="userSpaceOnUse"
     id="clipPath23"><path
       d="m 0.39675,0.3653 h 334.5 v 630.75 h -334.5 z"
       clip-rule="evenodd"
       id="path23-3" /></clipPath><clipPath
     clipPathUnits="userSpaceOnUse"
     id="clipPath24"><path
       d="m 0.39675,0.3653 h 334.5 v 630.75 h -334.5 z"
       clip-rule="evenodd"
       id="path24-7" /></clipPath><clipPath
     clipPathUnits="userSpaceOnUse"
     id="clipPath25"><path
       d="m 0.39675,0.3653 h 334.5 v 630.75 h -334.5 z"
       clip-rule="evenodd"
       id="path25" /></clipPath><clipPath
     clipPathUnits="userSpaceOnUse"
     id="clipPath26"><path
       d="m 0.39675,0.3653 h 334.5 v 630.75 h -334.5 z"
       clip-rule="evenodd"
       id="path26" /></clipPath><clipPath
     clipPathUnits="userSpaceOnUse"
     id="clipPath27"><path
       d="m 0.39675,0.3653 h 334.5 v 630.75 h -334.5 z"
       clip-rule="evenodd"
       id="path27" /></clipPath><clipPath
     clipPathUnits="userSpaceOnUse"
     id="clipPath28"><path
       d="m 0.39675,0.3653 h 334.5 v 630.75 h -334.5 z"
       clip-rule="evenodd"
       id="path28-5" /></clipPath><clipPath
     clipPathUnits="userSpaceOnUse"
     id="clipPath29"><path
       d="m 0.39675,0.3653 h 334.5 v 630.75 h -334.5 z"
       clip-rule="evenodd"
       id="path29-7" /></clipPath><clipPath
     clipPathUnits="userSpaceOnUse"
     id="clipPath30"><path
       d="m 0.39675,0.3653 h 334.5 v 630.75 h -334.5 z"
       clip-rule="evenodd"
       id="path30-2" /></clipPath><clipPath
     clipPathUnits="userSpaceOnUse"
     id="clipPath31"><path
       d="m 0.39675,0.3653 h 334.5 v 630.75 h -334.5 z"
       clip-rule="evenodd"
       id="path31-9" /></clipPath><clipPath
     clipPathUnits="userSpaceOnUse"
     id="clipPath32"><path
       d="m 0.39675,0.3653 h 334.5 v 630.75 h -334.5 z"
       clip-rule="evenodd"
       id="path32-7" /></clipPath><clipPath
     clipPathUnits="userSpaceOnUse"
     id="clipPath33"><path
       d="m 0.39675,0.3653 h 334.5 v 630.75 h -334.5 z"
       clip-rule="evenodd"
       id="path33" /></clipPath><clipPath
     clipPathUnits="userSpaceOnUse"
     id="clipPath34"><path
       d="m 0.39675,0.3653 h 334.5 v 630.75 h -334.5 z"
       clip-rule="evenodd"
       id="path34" /></clipPath><clipPath
     clipPathUnits="userSpaceOnUse"
     id="clipPath35"><path
       d="m 0.39675,0.3653 h 334.5 v 630.75 h -334.5 z"
       clip-rule="evenodd"
       id="path35" /></clipPath><clipPath
     clipPathUnits="userSpaceOnUse"
     id="clipPath68"><path
       d="m 114.23,540 h 50.84 L 508.46,169.19 325.85,6.1035e-5 H 275.01 L -3.4476e-5,296.97 -1.5014e-5,434.16 Z"
       transform="matrix(1.3333333,0,0,-1.3333333,0,720)"
       clip-rule="evenodd"
       id="path68" /></clipPath><clipPath
     clipPathUnits="userSpaceOnUse"
     id="clipPath70"><path
       d="M -3.0518e-5,6.1035e-5 H 959.75997 V 540.00006 H -3.0518e-5 Z"
       clip-rule="evenodd"
       id="path70" /></clipPath></defs><sodipodi:namedview
   id="namedview32"
   pagecolor="#ffffff"
   bordercolor="#000000"
   borderopacity="0.25"
   inkscape:showpageshadow="2"
   inkscape:pageopacity="0.0"
   inkscape:pagecheckerboard="true"
   inkscape:deskcolor="#d1d1d1"
   inkscape:zoom="0.73385058"
   inkscape:cx="1093.5469"
   inkscape:cy="386.31842"
   inkscape:window-width="2176"
   inkscape:window-height="1294"
   inkscape:window-x="0"
   inkscape:window-y="25"
   inkscape:window-maximized="0"
   inkscape:current-layer="g1"><inkscape:page
     x="0"
     y="0"
     width="1561.1865"
     height="653.77234"
     id="page1"
     margin="0"
     bleed="0" /></sodipodi:namedview>

<path
   fill="#243f5b"
   opacity="1"
   stroke="none"
   d="M 258.61262,487.89262 C 208.37726,475.25337 164.70078,450.94115 125.50693,418.02207 82.853058,382.19688 49.339007,339.47405 27.702821,287.94147 9.1230515,243.68857 1.4935315,197.94558 10.733572,150.18431 24.535472,78.842955 79.587357,26.450861 153.28663,15.047774 c 48.35151,-7.481147 94.83968,0.524774 138.96729,20.423961 84.32644,38.02674 146.33375,99.143835 183.67926,184.051625 18.37321,41.77285 26.0523,85.72815 18.16301,131.27083 -2.39539,13.82755 -6.24701,27.7131 -11.67593,40.62877 -7.26828,17.29175 -3.90597,32.05546 8.13014,44.58118 9.73388,10.12988 21.17269,18.72445 32.37674,27.32021 39.3783,30.21103 79.18143,59.87078 118.41505,90.26675 19.52069,15.1235 25.57624,40.03657 16.10412,60.41238 -15.4786,33.29654 -57.84816,39.61207 -83.1969,11.87887 -17.97196,-19.66252 -35.11769,-40.08629 -52.44276,-60.3324 -20.14019,-23.53585 -39.95064,-47.35465 -60.16275,-70.82804 -7.18306,-8.34209 -15.20362,-15.93976 -25.64573,-20.30044 -9.45964,-3.95036 -18.99897,-4.99742 -28.51131,-0.25705 -46.87454,23.359 -95.79389,25.78337 -146.08088,14.36121 -0.81191,-0.18442 -1.62463,-0.3652 -2.79336,-0.63301 M 131.30057,56.763545 C 81.786897,75.621655 53.185607,111.81757 44.101897,163.46842 c -5.793097,32.94009 -1.15966,65.30005 10.368081,96.33124 30.614796,82.41103 87.811322,140.56107 166.470652,178.01268 36.39489,17.3285 75.009,25.35001 115.53876,21.20744 32.29178,-3.30062 61.00419,-15.04229 84.47912,-37.91659 27.76491,-27.05453 39.8464,-60.80184 40.7276,-98.9507 1.00221,-43.38836 -11.87985,-83.09944 -33.17418,-120.31641 C 405.59288,161.77958 374.86771,128.56204 337.7125,101.37989 304.55383,77.121505 268.32897,59.251245 227.65917,51.461815 c -32.26874,-6.18038 -64.26646,-6.03682 -96.3586,5.30173 z"
   id="path2" />

<path
   fill="#88c547"
   opacity="1"
   stroke="none"
   d="m 354.69673,413.13496 c 2.1675,3.09006 4.33503,6.18015 6.72752,9.59097 l -15.96373,16.90428 c -14.65448,-12.27319 -25.77866,-26.76302 -31.93294,-44.87248 -5.86,-17.24339 -6.72483,-35.13127 -7.06197,-53.70812 0.31522,-12.07085 0.64925,-23.53379 1.13949,-35.27954 0.27899,-7.13716 0.40171,-13.99157 0.65535,-21.15491 -0.0147,-5.76543 -0.16044,-11.22195 -0.22815,-16.99964 -0.78569,-7.52624 -1.64933,-14.73129 -2.46488,-22.29035 -0.84549,-4.19808 -1.7391,-8.04212 -2.58501,-12.1347 -0.14934,-0.70177 -0.34637,-1.15499 -0.54842,-1.97312 -2.23607,-5.81456 -4.46714,-11.26422 -7.07405,-17.63196 -2.31517,2.45158 -3.65821,3.88904 -5.01788,5.31061 -11.71429,12.25223 -23.43155,24.5017 -35.46611,36.46191 -2.91839,-2.77595 -6.18119,-4.56008 -8.52384,-7.42716 12.44013,-13.28173 25.28544,-26.88385 38.35661,-40.72515 -7.25439,-1.82081 -13.59986,-3.41346 -20.08153,-5.16474 -0.13619,-0.15859 -0.47969,-0.39688 -0.17698,-0.72163 2.24272,-2.9177 4.3998,-4.42407 7.9306,-2.99199 0.99165,0.40221 2.71079,-0.56997 3.8706,-1.28021 0.31135,-0.1906 0.0353,-2.40702 -0.38248,-2.55842 -4.80153,-1.74032 -3.67474,-6.93387 -5.98123,-10.13774 -1.55997,-2.16688 -0.93869,-4.76539 1.91788,-6.24997 1.14591,-0.5955 3.94803,-0.61666 4.97665,-1.43785 13.17773,6.72943 23.57864,13.58837 34.2947,24.06742 18.17011,17.76827 28.46055,39.15857 31.04307,64.18891 1.2778,12.38493 1.31908,24.89741 1.93851,37.98649 -0.47636,12.10182 -0.97143,23.56928 -1.5696,35.32224 -0.0846,9.81566 -0.0661,19.34581 -0.1166,29.16453 0.41387,5.47554 0.89681,10.66256 1.3961,16.20997 1.65904,6.35718 3.30172,12.35398 4.92925,18.7023 1.98946,3.84429 3.99412,7.33703 5.99875,10.82976 z"
   id="path4"
   sodipodi:nodetypes="cccsccccccccccccccsscsscssccccccc" />
<path
   fill="#ea3f40"
   opacity="1"
   stroke="none"
   d="m 155.62588,98.437015 c -1.36244,-2.26981 -2.72482,-4.53966 -4.27808,-7.12743 l 16.08785,-17.03572 c 10.11404,9.06331 18.03386,19.55035 23.69814,31.758005 6.99934,15.08496 9.31184,31.16601 10.09683,47.56756 0.21437,4.47928 0.34703,8.96246 0.53355,14.05652 -0.51003,12.0802 -1.03641,23.54776 -1.66178,35.31548 -1.22233,16.68374 -2.5431,33.069 0.14483,50.56798 8.71978,-9.23353 17.37186,-18.55156 25.76107,-26.78435 2.90338,2.77072 6.15186,4.68151 8.46135,7.5287 -9.60889,10.26313 -20.23598,21.42969 -29.48413,31.38891 -1.10421,1.18907 -2.46418,3.31356 -2.09332,4.5008 1.81179,5.79973 4.17062,11.42857 6.33451,17.44552 1.66363,3.73758 3.77485,6.83125 5.54601,10.60209 6.51703,8.96869 11.843,18.48537 19.10052,26.30766 5.53392,5.96456 12.95124,10.18173 19.5307,15.17628 -11.99445,-1.69833 -22.97962,-6.22404 -33.2,-12.4944 -37.10643,-22.76536 -54.57994,-56.76135 -56.33997,-99.55208 -0.27962,-6.79834 -0.055,-13.61742 -0.046,-21.07502 0.54073,-12.23174 1.06396,-23.81535 1.714,-35.73522 0.11985,-7.94984 0.11284,-15.5634 0.19108,-23.50956 -0.19636,-5.71872 -0.57441,-10.78533 -0.76305,-16.51307 -1.22999,-6.67454 -2.45644,-13.32708 -3.82722,-20.02329 -1.86756,-4.36395 -3.68724,-8.36466 -5.50694,-12.365365 z"
   id="path5"
   sodipodi:nodetypes="cccsscccccscccscsscccccc" />
<path
   fill="#31adde"
   opacity="1"
   stroke="none"
   d="m 319.01414,323.36524 c 0.49507,-11.46746 -0.1135,-9.43866 0.47931,-21.23385 18.251,-1.78417 61.01625,-0.92605 78.75449,4.12831 18.06155,5.14649 33.02758,15.08368 45.5728,29.32608 l -15.91705,16.85485 c -3.03805,-2.24548 -5.93248,-4.3848 -9.27964,-6.85872 -10.62702,11.25313 -21.097,22.33998 -32.26278,33.40298 -3.28247,-2.50207 -5.86911,-4.98028 -8.20699,-7.84829 9.69147,-10.38888 19.13417,-20.38793 29.44481,-31.30605 -5.89571,-1.07804 -10.59397,-1.84297 -15.24741,-2.82121 -3.08879,-0.64932 -5.22958,0.21323 -7.4158,2.59791 -6.28778,6.85861 -12.88365,13.43478 -19.64113,19.83911 -2.81836,-2.61809 -5.35411,-4.95333 -7.60836,-7.65423 4.75609,-5.10388 9.2307,-9.84212 13.70532,-14.58037 -0.15855,-0.4415 -0.31713,-0.883 -0.47568,-1.3245 -9.44125,0.68523 -43.31448,1.36329 -52.75572,2.04849 z"
   id="path6"
   sodipodi:nodetypes="ccsccccccsscccccc" />
<path
   fill="#2dacdf"
   opacity="1"
   stroke="none"
   d="m 186.45717,165.59678 c -0.5232,11.58358 0.25287,23.73326 -0.36933,35.66257 -20.99391,2.24429 -64.02854,6.84041 -83.94388,-0.79737 -12.542805,-4.81033 -23.565118,-12.01476 -33.337027,-21.74512 l 16.094063,-17.04229 c 2.215684,1.10497 4.548268,2.26825 7.529481,3.76203 4.903643,1.62664 9.158643,2.92279 13.703423,4.40568 6.71127,1.01748 13.13281,1.84816 19.87591,2.75619 5.84098,0.0554 11.36039,0.0335 17.23644,0.0905 7.62407,-0.44884 35.94349,-6.56442 43.21092,-7.09218 z"
   id="path7"
   sodipodi:nodetypes="ccsccccccc" />
<path
   fill="#fbcd34"
   opacity="1"
   stroke="none"
   d="m 253.72214,339.8761 c -6.89767,-5.16563 -14.31499,-9.3828 -19.84891,-15.34736 -7.25752,-7.82229 -13.61417,-18.0033 -19.90671,-27.16941 0.67819,-0.66178 1.82252,0.21544 2.71398,0.26682 5.96353,2.24655 11.59531,4.33834 17.50549,6.57773 5.0222,0.94187 9.76607,1.73612 14.85045,2.66041 7.18347,0.4189 14.02643,0.70776 21.15682,1.10867 5.87132,-0.26968 11.45522,-0.65141 17.36168,-0.92776 6.84636,-0.26051 27.70758,-4.79935 34.23135,-5.16528 -0.334,11.46296 1.84699,23.79208 1.38386,35.5805 -17.55982,2.36806 -51.81207,6.17698 -69.44801,2.41568 z"
   id="path8"
   sodipodi:nodetypes="csccccccccc" />
<path
   fill="#85c54c"
   opacity="1"
   stroke="none"
   d="m 184.02976,201.81522 c 0.62044,-13.51622 -2.01268,-22.06419 -1.24046,-35.95042 29.21933,-3.63618 66.16999,-0.88102 94.02351,10.80121 -0.88243,1.22413 1.26978,4.51672 -0.0808,5.21861 -3.36689,1.74979 0.0881,4.43649 1.86515,7.03366 3.11037,4.5457 -2.68595,6.99112 2.97337,9.04235 0.49244,0.17844 -1.85753,4.26144 -2.22447,4.48612 -1.367,0.83713 -6.96396,1.02475 -8.13276,0.55067 -4.16157,-1.6879 -7.06585,-2.25698 -10.0615,1.13536 -4.01984,-3.99715 -11.66009,-4.53248 -17.28072,-5.18637 -19.32685,-2.05804 -40.25586,0.36364 -59.84128,2.86881 z"
   id="path9"
   sodipodi:nodetypes="cccsssssccc"
   style="stroke-width:1.17865" />
<path
   fill="#3cb2e1"
   opacity="1"
   stroke="none"
   d="m 155.68921,98.343085 c 2.15622,3.671225 3.90927,7.742485 5.44296,12.394705 -9.40522,10.17867 -18.8576,20.05867 -28.3122,29.30157 -3.08602,-2.83303 -5.83667,-5.3818 -8.58729,-7.93062 10.24005,-11.00424 20.87996,-22.43193 31.45653,-33.765655 z"
   id="path10"
   sodipodi:nodetypes="ccccc" />
<path
   fill="#fcd13b"
   opacity="1"
   stroke="none"
   d="m 124.50068,131.85796 c 3.1549,2.30513 5.74574,4.80571 8.57131,8.04531 -8.85516,10.19706 -18.34597,20.40577 -27.27609,29.91204 -4.25501,-1.29613 -8.461786,-2.75206 -12.977844,-4.27081 10.027994,-11.13121 20.989294,-22.53426 31.682634,-33.68651 z"
   id="path11"
   sodipodi:nodetypes="cccccc" />
<path
   fill="#fbcf34"
   opacity="1"
   stroke="none"
   d="m 378.23405,371.17854 c 2.58663,2.4782 5.22024,4.90668 8.13684,7.70034 -9.97756,11.2824 -20.94207,22.94511 -31.60264,34.23318 -2.35773,-3.17166 -4.36239,-6.6644 -5.99128,-10.81498 9.86615,-10.59608 19.96668,-21.18036 29.45712,-31.11854 z"
   id="path12"
   sodipodi:nodetypes="ccccc" />




<path
   fill="#FDCC2E"
   opacity="1"
   stroke="none"
   d="m 209.2267,287.61899 c 12.244,-13.37085 24.78105,-26.72589 37.4245,-40.04466 2.93606,2.59137 5.30696,5.00756 8.22501,7.78388 -12.45903,13.97048 -25.24854,27.97626 -38.28275,42.04765 -0.81674,0.49434 -1.9209,0.0136 -2.70519,0.31434 -1.88958,-3.21244 -2.99796,-6.3636 -4.6616,-10.10118 z"
   id="path17"
   style="fill:#ea3f40;fill-opacity:1"
   sodipodi:nodetypes="ccccccc" />
<path
   fill="#32ACDF"
   opacity="1"
   stroke="none"
   d="m 264.6275,202.04115 c -10.03283,10.9908 -20.20183,21.82301 -30.75421,32.9185 -2.96487,-2.19761 -5.84521,-4.49821 -8.49175,-7.65153 8.10544,-9.41115 17.4627,-19.07417 25.63319,-27.7929 4.47439,0.42199 8.0609,1.628 12.83419,2.08954 0.29887,0.0395 0.64241,0.27779 0.77858,0.43639 z"
   id="path18"
   style="fill:#85c54c;fill-opacity:1"
   sodipodi:nodetypes="cccccc" />

<path
   fill="#EA4945"
   opacity="1"
   stroke="none"
   d="m 342.37262,367.39293 c 4.79677,-5.08521 10.27332,-10.77301 15.39099,-15.84815 2.92522,2.05643 4.94468,4.93839 7.76305,7.55645 -6.77172,7.91022 -14.5273,16.37973 -21.91265,24.32272 -0.81391,-4.87148 -0.82752,-10.55548 -1.24139,-16.03102 z"
   id="path20"
   style="fill:#fbcd34;fill-opacity:1"
   sodipodi:nodetypes="ccccc" />
<path
   fill="#34B1E4"
   opacity="1"
   stroke="none"
   d="m 289.04155,287.6449 c 6.03065,-6.3698 12.54283,-12.8503 18.98389,-19.51951 0.55609,5.1571 0.60215,10.51954 0.23577,16.57871 -3.78159,3.97206 -7.18119,7.8783 -10.77954,10.94621 -2.94867,-2.75875 -5.82034,-5.54808 -8.44017,-8.00536 z"
   id="path21"
   style="fill:#ea3f40;fill-opacity:1"
   sodipodi:nodetypes="cccccc" />

<path
   fill="#FCCC28"
   opacity="1"
   stroke="none"
   d="m 305.56742,245.32517 c -1.69957,2.02217 -3.35107,3.69034 -5.6229,5.37823 -2.1409,-0.16804 -3.67305,-0.29025 -5.17931,-0.55802 -2.67508,-0.47552 -5.33448,-1.03935 -8.00041,-1.56621 4.78171,-5.20661 9.56344,-10.41319 14.895,-15.6772 0.79594,0.13542 1.03763,0.33357 1.27497,0.53705 0.89356,3.84404 1.78716,7.68807 2.63265,11.88615 z"
   id="path23"
   style="fill:#fcd13c;fill-opacity:1" />
<path
   fill="#fcd13c"
   opacity="1"
   stroke="none"
   d="m 304.16049,238.93456 c -0.28497,0.0451 -3.30633,-4.27186 -3.73083,-4.61393 -0.11848,-0.33289 2.10811,-2.01836 2.05222,-2.50357 0.92109,1.28433 1.52926,6.41575 1.67861,7.1175 z"
   id="path24"
   sodipodi:nodetypes="cccc" />



<path
   fill="#38B0E0"
   opacity="1"
   stroke="none"
   d="m 165.72309,147.33874 c -3.82308,4.16543 -8.07044,8.64643 -12.49294,12.45132 -3.25603,-2.44895 -5.31792,-5.51816 -7.88925,-7.93919 6.3003,-6.81132 13.01964,-13.74026 19.68092,-20.8361 0.64243,5.10155 0.50499,10.60532 0.70134,16.32404 z"
   id="path28"
   style="fill:#fcd13b;fill-opacity:1"
   sodipodi:nodetypes="ccccc" />
<path
   fill="#FCCE34"
   opacity="1"
   stroke="none"
   d="m 145.29755,151.73648 c 2.97342,2.15554 5.65935,4.8901 8.55639,7.62518 -3.14608,4.32319 -8.0649,9.42976 -11.73737,13.85918 -5.72009,0.44219 -10.26578,-0.56695 -16.10676,-0.62237 5.96124,-6.79043 12.60282,-13.88341 19.28774,-20.86199 z"
   id="path29"
   style="fill:#38b0e0;fill-opacity:1"
   sodipodi:nodetypes="ccccc" />
<path
   fill="#35b0e1"
   opacity="1"
   stroke="none"
   d="m 276.85624,275.86978 c -7.84247,8.49437 -15.78067,17.08766 -23.62072,25.58427 -1.34492,1.45752 -2.67419,2.92948 -4.27515,4.8375 -5.00831,-0.35155 -9.75218,-1.1458 -14.77436,-2.08765 10.87183,-12.02645 22.48897,-24.6002 34.33676,-36.47836 3.36703,2.51694 5.66404,5.628 8.33346,8.14423 z"
   id="path30"
   sodipodi:nodetypes="cscccc" />
<path
   fill="#8CC750"
   opacity="1"
   stroke="none"
   d="m 297.47612,295.45658 c -3.06453,3.58353 -6.77329,7.69862 -10.31586,11.59866 -5.7055,0.27186 -11.09568,0.64804 -16.967,0.91772 5.8428,-6.65234 12.39918,-13.54415 18.90193,-20.38199 2.66327,2.50821 5.43232,5.10682 8.38091,7.86564 z"
   id="path31"
   style="fill:#85c54c;fill-opacity:1"
   sodipodi:nodetypes="ccccc" />
<path
   fill="#fcd13c"
   opacity="1"
   stroke="none"
   d="m 276.82548,276.09126 c -2.78569,-2.582 -5.42614,-5.28826 -8.43318,-8.07385 5.91062,-6.26322 13.6351,-14.31188 19.80624,-20.95584 3.00679,0.30975 3.89155,2.60831 6.56664,3.08384 1.50626,0.26776 4.89318,-0.99623 6.68707,-0.55728 -7.1869,8.36818 -17.25792,18.67188 -25.08238,26.98556 z"
   id="path32"
   sodipodi:nodetypes="cccsccc" />
<text
   xml:space="preserve"
   style="font-style:normal;font-variant:normal;font-weight:normal;font-stretch:normal;font-size:346.667px;font-family:Arial;-inkscape-font-specification:Arial;text-align:start;writing-mode:lr-tb;direction:ltr;text-anchor:start;fill:#000000;stroke:#000000;stroke-width:7.55906;stroke-opacity:0"
   x="618.94208"
   y="428.98776"
   id="text1"><tspan
     sodipodi:role="line"
     id="tspan1"
     x="618.94208"
     y="428.98776"
     style="font-style:normal;font-variant:normal;font-weight:normal;font-stretch:normal;font-family:Aptos;-inkscape-font-specification:Aptos" /></text><g
   id="g1"
   inkscape:groupmode="layer"
   inkscape:label="1"
   transform="translate(1571.1864)"><g
     id="g68"
     transform="matrix(1.2197395,0,0,1.2197395,-1598.2562,-128.91586)"><path
       id="path69"
       d="m 502.56,191.49 c -8.36,0 -15.22,1.6 -20.61,4.8 -5.38,3.2 -9.99,7.61 -13.81,13.23 l -1.29,-15.93 h -29.39 v 157.62 h 31.03 v -59.72 c 4.06,5.54 9.01,9.97 14.87,13.29 5.85,3.32 13.07,4.98 21.65,4.98 8.75,0 16.55,-2.13 23.42,-6.38 6.87,-4.26 12.29,-10.74 16.27,-19.44 3.98,-8.71 5.97,-19.81 5.97,-33.32 0,-13.43 -2.13,-24.51 -6.38,-33.25 -4.25,-8.75 -10.01,-15.25 -17.27,-19.5 -7.25,-4.26 -15.41,-6.38 -24.46,-6.38 z m -7.73,23.77 c 7.57,0 13.48,2.96 17.74,8.9 4.25,5.93 6.38,14.56 6.38,25.88 0,12.25 -2.01,21.37 -6.03,27.34 -4.02,5.97 -9.62,8.96 -16.8,8.96 -6.4,0 -12,-1.91 -16.8,-5.74 -4.8,-3.83 -8.41,-8.31 -10.83,-13.47 v -33.49 c 2.26,-4.92 5.64,-9.21 10.12,-12.88 4.49,-3.67 9.9,-5.5 16.22,-5.5 z m 135.6,-23.77 c -12.72,0 -23.41,2.36 -32.08,7.08 -8.66,4.72 -15.22,11.54 -19.67,20.44 -4.44,8.9 -6.67,19.59 -6.67,32.08 0,12.1 2.17,22.52 6.5,31.27 4.33,8.74 10.69,15.47 19.08,20.2 8.39,4.72 18.71,7.08 30.97,7.08 17.01,0 30.45,-4.98 40.33,-14.93 9.87,-9.95 14.81,-24.14 14.81,-42.57 0,-0.93 -0.04,-2.2 -0.12,-3.8 -0.08,-1.6 -0.2,-2.83 -0.35,-3.69 h -80.2 c 0.16,-5.39 1.16,-10.42 2.99,-15.11 1.83,-4.68 4.74,-8.45 8.72,-11.3 3.98,-2.85 9.21,-4.27 15.69,-4.27 6.71,0 12.1,1.46 16.15,4.39 4.06,2.93 6.13,7.28 6.21,13.06 h 30.55 c -0.39,-8.9 -2.82,-16.32 -7.31,-22.25 -4.49,-5.93 -10.62,-10.36 -18.38,-13.29 -7.77,-2.93 -16.84,-4.39 -27.22,-4.39 z m -27.04,72.83 h 49.52 c -0.24,7.97 -2.6,13.92 -7.09,17.86 -4.48,3.94 -10.24,5.91 -17.26,5.91 -7.18,0 -13.06,-2.03 -17.62,-6.08 -4.57,-4.06 -7.09,-9.96 -7.55,-17.69 z m 151.24,-70.73 c -11.63,0 -20.6,1.39 -26.92,4.16 -6.33,2.77 -10.74,7.07 -13.23,12.88 -2.5,5.82 -3.75,13.41 -3.75,22.78 v 117.8 h 30.91 V 235.28 c 0,-6.01 0.82,-10.42 2.46,-13.23 1.63,-2.81 5.46,-4.22 11.47,-4.22 h 7.14 v -24.24 z m 70.56,0 c -11.63,0 -20.6,1.39 -26.92,4.16 -6.33,2.77 -10.74,7.07 -13.23,12.88 -2.5,5.82 -3.75,13.41 -3.75,22.78 v 117.8 H 812.2 V 235.28 c 0,-6.01 0.82,-10.42 2.46,-13.23 1.64,-2.81 5.46,-4.22 11.47,-4.22 h 7.14 v -24.24 z m 59.58,-1.99 c -6.48,0 -12.53,1.25 -18.15,3.75 -5.62,2.5 -10.17,6.27 -13.64,11.3 -3.47,5.04 -5.21,11.34 -5.21,18.91 0,10.54 3.16,18.49 9.48,23.83 6.33,5.35 15.16,8.98 26.52,10.89 11.36,1.92 24.57,3.03 39.63,3.34 v 6.09 c 0,7.42 -1.78,12.49 -5.33,15.22 -3.55,2.73 -8.13,4.1 -13.75,4.1 -6.17,0 -11.24,-1.46 -15.22,-4.39 -3.98,-2.93 -5.97,-7.67 -5.97,-14.23 h -29.04 c 0,9.76 2.13,17.49 6.38,23.19 4.26,5.7 10.15,9.8 17.68,12.29 7.53,2.5 16.25,3.75 26.17,3.75 7.25,0 13.89,-0.6 19.9,-1.81 6.01,-1.21 11.22,-3.3 15.63,-6.27 4.41,-2.97 7.82,-7.01 10.24,-12.12 2.42,-5.11 3.63,-11.49 3.63,-19.14 v -76.71 h -29.03 l -0.94,14.88 c -4.84,-5.55 -10.46,-9.74 -16.86,-12.59 -6.4,-2.85 -13.77,-4.28 -22.12,-4.28 z m 10.18,21.32 c 5.85,0 11.26,1.52 16.21,4.56 4.96,3.05 8.92,6.52 11.89,10.43 v 18.5 c -16.39,-0.08 -27.87,-1.62 -34.42,-4.63 -6.56,-3 -9.84,-7.86 -9.84,-14.58 0,-4.84 1.51,-8.43 4.51,-10.77 3.01,-2.34 6.89,-3.51 11.65,-3.51 z"
       style="fill:#223d59;fill-opacity:1;fill-rule:nonzero;stroke:none"
       transform="matrix(1.3333333,0,0,-1.3333333,0,720)"
       clip-path="url(#clipPath70)" /></g></g></svg>
